<mxfile host="app.diagrams.net" modified="2022-06-09T07:55:31.204Z" agent="5.0 (Windows NT 10.0; Win64; x64) AppleWebKit/537.36 (KHTML, like Gecko) Chrome/102.0.0.0 Safari/537.36" etag="tI7NzNtZI5IMbC0XuVmv" version="19.0.3" type="github">
  <diagram name="Page-1" id="74e2e168-ea6b-b213-b513-2b3c1d86103e">
    <mxGraphModel dx="1322" dy="1507" grid="1" gridSize="10" guides="1" tooltips="1" connect="1" arrows="1" fold="1" page="1" pageScale="1" pageWidth="1169" pageHeight="827" background="none" math="0" shadow="0">
      <root>
        <mxCell id="0" />
        <mxCell id="1" parent="0" />
        <mxCell id="77e6c97f196da883-1" value="tttttt" style="swimlane;html=1;childLayout=stackLayout;startSize=20;rounded=0;shadow=0;labelBackgroundColor=none;strokeWidth=1;fontFamily=Verdana;fontSize=8;align=center;" parent="1" vertex="1">
          <mxGeometry x="40" y="39" width="3000" height="320" as="geometry" />
        </mxCell>
        <mxCell id="77e6c97f196da883-2" value="Lane 1" style="swimlane;html=1;startSize=20;dashed=1;" parent="77e6c97f196da883-1" vertex="1">
          <mxGeometry y="20" width="200" height="300" as="geometry" />
        </mxCell>
        <mxCell id="77e6c97f196da883-8" value="1-1&lt;br&gt;모든 재료를 선택 후&lt;br&gt;&lt;div style=&quot;&quot;&gt;&lt;span style=&quot;background-color: initial;&quot;&gt;&amp;nbsp;추천 받을 것인지.&lt;/span&gt;&lt;/div&gt;&lt;div style=&quot;&quot;&gt;&lt;span style=&quot;background-color: initial;&quot;&gt;&lt;br&gt;&lt;/span&gt;&lt;/div&gt;1-2&lt;br&gt;원하는 재료를 &lt;br&gt;한 가지씩&lt;br&gt;선택해서 &lt;br&gt;추천 받을 것인지" style="rounded=1;whiteSpace=wrap;html=1;shadow=0;labelBackgroundColor=none;strokeWidth=1;fontFamily=Verdana;fontSize=8;align=center;" parent="77e6c97f196da883-2" vertex="1">
          <mxGeometry x="40" y="60" width="120" height="200" as="geometry" />
        </mxCell>
        <mxCell id="77e6c97f196da883-3" value="Lane 2" style="swimlane;html=1;startSize=20;strokeColor=#000000;dashed=1;" parent="77e6c97f196da883-1" vertex="1">
          <mxGeometry x="200" y="20" width="200" height="300" as="geometry" />
        </mxCell>
        <mxCell id="77e6c97f196da883-11" value="가지고 있는 술 중&lt;br&gt;바탕 술 선택&lt;br&gt;(Check Box)" style="rounded=1;whiteSpace=wrap;html=1;shadow=0;labelBackgroundColor=none;strokeWidth=1;fontFamily=Verdana;fontSize=8;align=center;" parent="77e6c97f196da883-3" vertex="1">
          <mxGeometry x="40" y="60" width="120" height="80" as="geometry" />
        </mxCell>
        <mxCell id="77e6c97f196da883-9" value="알고 싶은&lt;br&gt;바탕 술 선택&lt;br&gt;(Radio)" style="rounded=1;whiteSpace=wrap;html=1;shadow=0;labelBackgroundColor=none;strokeWidth=1;fontFamily=Verdana;fontSize=8;align=center;" parent="77e6c97f196da883-3" vertex="1">
          <mxGeometry x="40" y="180" width="120" height="80" as="geometry" />
        </mxCell>
        <mxCell id="77e6c97f196da883-4" value="Lane 3" style="swimlane;html=1;startSize=20;dashed=1;" parent="77e6c97f196da883-1" vertex="1">
          <mxGeometry x="400" y="20" width="200" height="300" as="geometry" />
        </mxCell>
        <mxCell id="WG7-GDT2cJCjvKGhf-v_-23" value="&lt;span style=&quot;color: rgb(51, 51, 51); font-family: -apple-system, BlinkMacSystemFont, &amp;quot;Helvetica Neue&amp;quot;, &amp;quot;Apple SD Gothic Neo&amp;quot;, Arial, sans-serif; text-align: start; font-size: 14px;&quot;&gt;Gin&lt;br&gt;&amp;nbsp;Vodka&lt;br&gt;Rum&lt;br&gt;Whiskey&lt;br&gt;Brandy&lt;br&gt;Tequila&lt;br&gt;Beer&lt;br&gt;Wine&lt;br&gt;C&lt;/span&gt;&lt;span style=&quot;font-family: -apple-system, BlinkMacSystemFont, &amp;quot;Helvetica Neue&amp;quot;, &amp;quot;Apple SD Gothic Neo&amp;quot;, Arial, sans-serif; text-align: start; font-size: 14px;&quot; data-mce-style=&quot;color: #000000;&quot;&gt;hampagne&lt;br&gt;Soju&lt;br&gt;전통주&lt;/span&gt;" style="whiteSpace=wrap;html=1;strokeColor=#000000;" vertex="1" parent="77e6c97f196da883-4">
          <mxGeometry x="40" y="60" width="120" height="200" as="geometry" />
        </mxCell>
        <mxCell id="77e6c97f196da883-5" value="Lane 4" style="swimlane;html=1;startSize=20;dashed=1;" parent="77e6c97f196da883-1" vertex="1">
          <mxGeometry x="600" y="20" width="200" height="300" as="geometry" />
        </mxCell>
        <mxCell id="WG7-GDT2cJCjvKGhf-v_-13" value="가지고 있는 술 중&lt;br&gt;섞을 수 있는 술 선택&lt;br&gt;(Check Box)" style="rounded=1;whiteSpace=wrap;html=1;shadow=0;labelBackgroundColor=none;strokeWidth=1;fontFamily=Verdana;fontSize=8;align=center;" vertex="1" parent="77e6c97f196da883-5">
          <mxGeometry x="40" y="60" width="120" height="80" as="geometry" />
        </mxCell>
        <mxCell id="77e6c97f196da883-6" value="Lane 5" style="swimlane;html=1;startSize=20;dashed=1;" parent="77e6c97f196da883-1" vertex="1">
          <mxGeometry x="800" y="20" width="200" height="300" as="geometry" />
        </mxCell>
        <mxCell id="WG7-GDT2cJCjvKGhf-v_-14" value="섞고 싶은 술 선택&lt;br&gt;(Radio)" style="rounded=1;whiteSpace=wrap;html=1;shadow=0;labelBackgroundColor=none;strokeWidth=1;fontFamily=Verdana;fontSize=8;align=center;" vertex="1" parent="77e6c97f196da883-6">
          <mxGeometry x="-160" y="180" width="120" height="80" as="geometry" />
        </mxCell>
        <mxCell id="WG7-GDT2cJCjvKGhf-v_-24" value="&lt;span style=&quot;color: rgb(51, 51, 51); font-family: -apple-system, BlinkMacSystemFont, &amp;quot;Helvetica Neue&amp;quot;, &amp;quot;Apple SD Gothic Neo&amp;quot;, Arial, sans-serif; font-style: normal; font-variant-ligatures: normal; font-variant-caps: normal; font-weight: 400; letter-spacing: normal; orphans: 2; text-align: start; text-indent: 0px; text-transform: none; widows: 2; word-spacing: 0px; -webkit-text-stroke-width: 0px; text-decoration-thickness: initial; text-decoration-style: initial; text-decoration-color: initial; float: none; display: inline !important; font-size: 14px;&quot;&gt;&lt;font style=&quot;font-size: 14px;&quot;&gt;Gin&lt;br&gt;&amp;nbsp;Vodka&lt;br&gt;Rum&lt;br&gt;Whiskey&lt;br&gt;Brandy&lt;br&gt;Tequila&lt;br&gt;Beer&lt;br&gt;Wine&lt;br&gt;C&lt;/font&gt;&lt;/span&gt;&lt;span style=&quot;font-family: -apple-system, BlinkMacSystemFont, &amp;quot;Helvetica Neue&amp;quot;, &amp;quot;Apple SD Gothic Neo&amp;quot;, Arial, sans-serif; font-style: normal; font-variant-ligatures: normal; font-variant-caps: normal; font-weight: 400; letter-spacing: normal; orphans: 2; text-align: start; text-indent: 0px; text-transform: none; widows: 2; word-spacing: 0px; -webkit-text-stroke-width: 0px; text-decoration-thickness: initial; text-decoration-style: initial; text-decoration-color: initial; color: rgb(0, 0, 0); font-size: 14px;&quot; data-mce-style=&quot;color: #000000;&quot;&gt;&lt;font style=&quot;font-size: 14px;&quot;&gt;hampagne&lt;br&gt;Soju&lt;br&gt;전통주&lt;/font&gt;&lt;br&gt;&lt;/span&gt;" style="whiteSpace=wrap;html=1;strokeColor=#000000;" vertex="1" parent="77e6c97f196da883-6">
          <mxGeometry x="40" y="61" width="120" height="200" as="geometry" />
        </mxCell>
        <mxCell id="77e6c97f196da883-7" value="Lane 6" style="swimlane;html=1;startSize=20;dashed=1;" parent="77e6c97f196da883-1" vertex="1">
          <mxGeometry x="1000" y="20" width="200" height="300" as="geometry" />
        </mxCell>
        <mxCell id="WG7-GDT2cJCjvKGhf-v_-17" value="가지고 있는 재료 선택&lt;br&gt;(Check Box)" style="rounded=1;whiteSpace=wrap;html=1;shadow=0;labelBackgroundColor=none;strokeWidth=1;fontFamily=Verdana;fontSize=8;align=center;" vertex="1" parent="77e6c97f196da883-7">
          <mxGeometry x="40" y="60" width="120" height="80" as="geometry" />
        </mxCell>
        <mxCell id="WG7-GDT2cJCjvKGhf-v_-18" value="섞고 싶은 재료 선택&lt;br&gt;(Radio)" style="rounded=1;whiteSpace=wrap;html=1;shadow=0;labelBackgroundColor=none;strokeWidth=1;fontFamily=Verdana;fontSize=8;align=center;" vertex="1" parent="77e6c97f196da883-7">
          <mxGeometry x="40" y="180" width="120" height="80" as="geometry" />
        </mxCell>
        <mxCell id="WG7-GDT2cJCjvKGhf-v_-21" value="Lane 7" style="swimlane;html=1;startSize=20;dashed=1;" vertex="1" parent="77e6c97f196da883-1">
          <mxGeometry x="1200" y="20" width="480" height="300" as="geometry" />
        </mxCell>
        <mxCell id="WG7-GDT2cJCjvKGhf-v_-31" value="주스" style="swimlane;fontSize=14;strokeColor=#000000;" vertex="1" parent="WG7-GDT2cJCjvKGhf-v_-21">
          <mxGeometry x="40" y="61" width="80" height="200" as="geometry" />
        </mxCell>
        <mxCell id="WG7-GDT2cJCjvKGhf-v_-32" value="&lt;font style=&quot;font-size: 8px;&quot;&gt;&lt;span style=&quot;font-family: -apple-system, BlinkMacSystemFont, &amp;quot;Helvetica Neue&amp;quot;, &amp;quot;Apple SD Gothic Neo&amp;quot;, Arial, sans-serif; text-align: start; font-size: 8px;&quot;&gt;오렌지 주스&lt;br style=&quot;font-size: 8px;&quot;&gt;크랜베리 주스&lt;br style=&quot;font-size: 8px;&quot;&gt;라임 주스&lt;br style=&quot;font-size: 8px;&quot;&gt;레몬&amp;nbsp;&lt;/span&gt;&lt;span style=&quot;font-family: -apple-system, BlinkMacSystemFont, &amp;quot;Helvetica Neue&amp;quot;, &amp;quot;Apple SD Gothic Neo&amp;quot;, Arial, sans-serif; text-align: start; font-size: 8px;&quot;&gt;주스&lt;br style=&quot;font-size: 8px;&quot;&gt;&lt;/span&gt;&lt;span style=&quot;font-family: -apple-system, BlinkMacSystemFont, &amp;quot;Helvetica Neue&amp;quot;, &amp;quot;Apple SD Gothic Neo&amp;quot;, Arial, sans-serif; text-align: start; font-size: 8px;&quot;&gt;자몽&amp;nbsp;&lt;/span&gt;&lt;span style=&quot;font-family: -apple-system, BlinkMacSystemFont, &amp;quot;Helvetica Neue&amp;quot;, &amp;quot;Apple SD Gothic Neo&amp;quot;, Arial, sans-serif; text-align: start; font-size: 8px;&quot;&gt;주스&lt;br style=&quot;font-size: 8px;&quot;&gt;&lt;/span&gt;&lt;span style=&quot;font-family: -apple-system, BlinkMacSystemFont, &amp;quot;Helvetica Neue&amp;quot;, &amp;quot;Apple SD Gothic Neo&amp;quot;, Arial, sans-serif; text-align: start; font-size: 8px;&quot;&gt;토마토&amp;nbsp;&lt;/span&gt;&lt;span style=&quot;font-family: -apple-system, BlinkMacSystemFont, &amp;quot;Helvetica Neue&amp;quot;, &amp;quot;Apple SD Gothic Neo&amp;quot;, Arial, sans-serif; text-align: start; font-size: 8px;&quot;&gt;주스&lt;br style=&quot;font-size: 8px;&quot;&gt;&lt;/span&gt;&lt;span style=&quot;font-family: -apple-system, BlinkMacSystemFont, &amp;quot;Helvetica Neue&amp;quot;, &amp;quot;Apple SD Gothic Neo&amp;quot;, Arial, sans-serif; text-align: start; font-size: 8px;&quot;&gt;파인애플&amp;nbsp;&lt;/span&gt;&lt;span style=&quot;font-family: -apple-system, BlinkMacSystemFont, &amp;quot;Helvetica Neue&amp;quot;, &amp;quot;Apple SD Gothic Neo&amp;quot;, Arial, sans-serif; text-align: start; font-size: 8px;&quot;&gt;주스&lt;/span&gt;&lt;span style=&quot;font-family: -apple-system, BlinkMacSystemFont, &amp;quot;Helvetica Neue&amp;quot;, &amp;quot;Apple SD Gothic Neo&amp;quot;, Arial, sans-serif; text-align: start; font-size: 8px;&quot;&gt;&lt;br style=&quot;font-size: 8px;&quot;&gt;&amp;nbsp;등등&lt;/span&gt;&lt;/font&gt;" style="text;html=1;align=center;verticalAlign=middle;resizable=0;points=[];autosize=1;strokeColor=none;fillColor=none;fontSize=8;" vertex="1" parent="WG7-GDT2cJCjvKGhf-v_-31">
          <mxGeometry y="56" width="80" height="90" as="geometry" />
        </mxCell>
        <mxCell id="WG7-GDT2cJCjvKGhf-v_-34" value="탄산음료" style="swimlane;fontSize=14;strokeColor=#000000;" vertex="1" parent="WG7-GDT2cJCjvKGhf-v_-21">
          <mxGeometry x="139" y="61" width="79.5" height="200" as="geometry" />
        </mxCell>
        <mxCell id="WG7-GDT2cJCjvKGhf-v_-35" value="&lt;span style=&quot;font-family: -apple-system, BlinkMacSystemFont, &amp;quot;Helvetica Neue&amp;quot;, &amp;quot;Apple SD Gothic Neo&amp;quot;, Arial, sans-serif; font-size: 8px; text-align: start;&quot;&gt;탄산수&lt;br&gt;콜라&lt;br&gt;사이다&lt;br&gt;토닉워터&lt;br&gt;진저에일&lt;br&gt;에너지 드링크&lt;br&gt;루트 비어&lt;/span&gt;" style="text;html=1;align=center;verticalAlign=middle;resizable=0;points=[];autosize=1;strokeColor=none;fillColor=none;fontSize=8;" vertex="1" parent="WG7-GDT2cJCjvKGhf-v_-34">
          <mxGeometry x="-0.5" y="60" width="80" height="80" as="geometry" />
        </mxCell>
        <mxCell id="WG7-GDT2cJCjvKGhf-v_-36" value="시럽" style="swimlane;fontSize=14;strokeColor=#000000;startSize=23;" vertex="1" parent="WG7-GDT2cJCjvKGhf-v_-21">
          <mxGeometry x="238.75" y="61" width="79.75" height="200" as="geometry" />
        </mxCell>
        <mxCell id="WG7-GDT2cJCjvKGhf-v_-37" value="&lt;span style=&quot;font-family: -apple-system, BlinkMacSystemFont, &amp;quot;Helvetica Neue&amp;quot;, &amp;quot;Apple SD Gothic Neo&amp;quot;, Arial, sans-serif; text-align: start; font-size: 9px;&quot;&gt;그레나딘 시럽&lt;br&gt;설탕 시럽&lt;br&gt;메이플 시럽&lt;br&gt;허니 시럽&lt;br&gt;라즈베리 시럽&lt;br&gt;등&lt;/span&gt;" style="text;html=1;align=center;verticalAlign=middle;resizable=0;points=[];autosize=1;strokeColor=none;fillColor=none;fontSize=8;" vertex="1" parent="WG7-GDT2cJCjvKGhf-v_-36">
          <mxGeometry x="-0.25" y="65" width="80" height="70" as="geometry" />
        </mxCell>
        <mxCell id="WG7-GDT2cJCjvKGhf-v_-38" value="그 외" style="swimlane;fontSize=14;strokeColor=#000000;startSize=23;" vertex="1" parent="WG7-GDT2cJCjvKGhf-v_-21">
          <mxGeometry x="340" y="61" width="100" height="200" as="geometry" />
        </mxCell>
        <mxCell id="WG7-GDT2cJCjvKGhf-v_-39" value="&lt;font style=&quot;font-size: 8px;&quot;&gt;&lt;span style=&quot;font-family: -apple-system, BlinkMacSystemFont, &amp;quot;Helvetica Neue&amp;quot;, &amp;quot;Apple SD Gothic Neo&amp;quot;, Arial, sans-serif; text-align: start; font-size: 8px;&quot;&gt;얼음&lt;br&gt;달걀&lt;br&gt;물&lt;br&gt;&lt;/span&gt;&lt;span style=&quot;font-family: -apple-system, BlinkMacSystemFont, &amp;quot;Helvetica Neue&amp;quot;, &amp;quot;Apple SD Gothic Neo&amp;quot;, Arial, sans-serif; text-align: start; font-size: 8px;&quot; data-mce-style=&quot;color: #000000;&quot;&gt;우스터소스&lt;br&gt;타바스코 소스&lt;br&gt;소금&lt;br&gt;후추&lt;br&gt;꿀&lt;br&gt;우유&lt;br&gt;크림&lt;br&gt;등등&lt;br&gt;&lt;/span&gt;&lt;/font&gt;" style="text;html=1;align=center;verticalAlign=middle;resizable=0;points=[];autosize=1;strokeColor=none;fillColor=none;fontSize=8;" vertex="1" parent="WG7-GDT2cJCjvKGhf-v_-38">
          <mxGeometry x="10" y="41" width="80" height="120" as="geometry" />
        </mxCell>
        <mxCell id="WG7-GDT2cJCjvKGhf-v_-22" value="Lane 8" style="swimlane;html=1;startSize=20;dashed=1;" vertex="1" parent="77e6c97f196da883-1">
          <mxGeometry x="1680" y="20" width="200" height="300" as="geometry" />
        </mxCell>
        <mxCell id="WG7-GDT2cJCjvKGhf-v_-40" value="취향 껏 선택 할 수 있도록&lt;br&gt;독한 맛, 상큼한 맛, 커피 맛, 매운 맛 등등&lt;br&gt;맛으로 분류하여&lt;br&gt;선택한 재료로 만들 수 있는 칵테일을 보여준다." style="rounded=1;whiteSpace=wrap;html=1;shadow=0;labelBackgroundColor=none;strokeWidth=1;fontFamily=Verdana;fontSize=8;align=center;" vertex="1" parent="WG7-GDT2cJCjvKGhf-v_-22">
          <mxGeometry x="40" y="62" width="120" height="200" as="geometry" />
        </mxCell>
        <mxCell id="WG7-GDT2cJCjvKGhf-v_-28" value="Lane 6" style="swimlane;html=1;startSize=20;dashed=1;" vertex="1" parent="77e6c97f196da883-1">
          <mxGeometry x="1880" y="20" width="200" height="300" as="geometry" />
        </mxCell>
        <mxCell id="WG7-GDT2cJCjvKGhf-v_-41" value="취향에 맞는 칵테일을&lt;br&gt;최종 선택하면&lt;br&gt;레시피, 특징 등을&amp;nbsp;&lt;br&gt;볼 수 있다." style="rounded=1;whiteSpace=wrap;html=1;shadow=0;labelBackgroundColor=none;strokeWidth=1;fontFamily=Verdana;fontSize=8;align=center;" vertex="1" parent="WG7-GDT2cJCjvKGhf-v_-28">
          <mxGeometry x="40" y="60" width="120" height="200" as="geometry" />
        </mxCell>
        <mxCell id="WG7-GDT2cJCjvKGhf-v_-29" value="Lane 6" style="swimlane;html=1;startSize=20;dashed=1;" vertex="1" parent="77e6c97f196da883-1">
          <mxGeometry x="2080" y="20" width="200" height="300" as="geometry" />
        </mxCell>
        <mxCell id="WG7-GDT2cJCjvKGhf-v_-30" value="Lane 6" style="swimlane;html=1;startSize=20;dashed=1;" vertex="1" parent="77e6c97f196da883-1">
          <mxGeometry x="2280" y="20" width="200" height="300" as="geometry" />
        </mxCell>
      </root>
    </mxGraphModel>
  </diagram>
</mxfile>
